M48
;Layer_Color=9474304
;FILE_FORMAT=4:4
METRIC,LZ
;TYPE=PLATED
T1F00S00C0.3000
T2F00S00C0.5000
T3F00S00C0.7300
T4F00S00C0.7400
T5F00S00C0.9900
T6F00S00C1.0000
T7F00S00C3.2000
%
T01
X0018542Y0003048
X0019558Y0004572
X0027432Y000508
Y0001778
X0028956Y0010414
X0026162Y0010922
X00236319Y00104104
X0023622Y0012446
X0020574Y0010414
X0019304Y0018542
X0018542Y0020066
X0015494Y0019558
X0018288Y0024638
X0023368Y0018034
X0032766Y0013208
X0034544Y0014732
Y0011176
X001397Y001016
X00127Y002286
T02
X000254Y001143
Y001651
T03
X0015494Y0021336
Y0023876
X0016764Y0022606
Y002921
X0015494Y002794
X0014224Y002921
T04
X0010414Y001143
Y001397
Y001651
T05
X0002548Y00213
X0002498Y00257
X0009398Y00254
Y00209
T06
X0039878Y0014752
Y0022352
T07
X0004064Y0004318
X0045974Y0004572
Y003175
X0004064
M30
